<svg version="1.1" xmlns="http://www.w3.org/2000/svg" width="400" height="400">
    <path d="M0 0 C1.12179405 -0.01469078 1.12179405 -0.01469078 2.26625061 -0.02967834 C37.97979839 -0.40086918 82.29276866 5.5601183 109.93359375 31.23828125 C111.72872745 34.82854865 111.62180124 38.3354281 110.93359375 42.23828125 C109.65962219 44.15357971 109.65962219 44.15357971 107.9465332 45.99047852 C107.30857819 46.68029816 106.67062317 47.3701178 106.01333618 48.08084106 C105.32702118 48.79279633 104.64070618 49.50475159 103.93359375 50.23828125 C102.92067764 51.29038284 102.92067764 51.29038284 101.88729858 52.36373901 C99.68402839 54.61938393 97.45911281 56.8514673 95.2265625 59.078125 C94.01665398 60.28946861 94.01665398 60.28946861 92.78230286 61.52528381 C91.09185489 63.2164077 89.4001618 64.90628781 87.70727539 66.5949707 C85.10771895 69.18912827 82.513597 71.7886355 79.91992188 74.38867188 C78.27245633 76.03547736 76.62468101 77.68197301 74.9765625 79.328125 C74.19951462 80.10719711 73.42246674 80.88626923 72.62187195 81.68894958 C71.90384903 82.40382034 71.18582611 83.1186911 70.44604492 83.85522461 C69.81429855 84.48617538 69.18255219 85.11712616 68.53166199 85.76719666 C65.34798867 88.69789302 62.53256038 88.52795482 58.38085938 88.47900391 C54.44668412 88.09202298 51.22990838 86.59291644 47.68359375 84.92578125 C23.99196063 74.49540397 -1.37214105 75.20528191 -25.51171875 83.8046875 C-49.42778251 93.44995717 -68.44501595 111.80594611 -78.6015625 135.51171875 C-88.60037911 160.22225201 -88.0025343 185.43052278 -79.06640625 210.23828125 C-78.3196102 211.89515995 -77.55299473 213.54347951 -76.75390625 215.17578125 C-74.71199104 219.61399366 -73.93369327 223.42812368 -75.06640625 228.23828125 C-76.35868835 230.1108551 -76.35868835 230.1108551 -78.06518555 231.96313477 C-78.70144867 232.65690216 -79.33771179 233.35066956 -79.99325562 234.06546021 C-83.54086708 237.78362942 -87.13474688 241.44903836 -90.7734375 245.078125 C-91.58004318 245.88568741 -92.38664886 246.69324982 -93.21769714 247.52528381 C-94.90814511 249.2164077 -96.5998382 250.90628781 -98.29272461 252.5949707 C-100.89228105 255.18912827 -103.486403 257.7886355 -106.08007812 260.38867188 C-107.72754367 262.03547736 -109.37531899 263.68197301 -111.0234375 265.328125 C-112.18900932 266.49673317 -112.18900932 266.49673317 -113.37812805 267.68894958 C-114.45516243 268.76125572 -114.45516243 268.76125572 -115.55395508 269.85522461 C-116.18570145 270.48617538 -116.81744781 271.11712616 -117.46833801 271.76719666 C-120.66258168 274.70762344 -123.64495949 274.6492323 -127.828125 274.5625 C-130.06640625 274.23828125 -130.06640625 274.23828125 -132.69140625 272.42578125 C-151.16127024 247.63727958 -163.07630048 215.10625168 -163.26953125 184.03125 C-163.27659088 183.27254105 -163.28365051 182.51383209 -163.29092407 181.73213196 C-163.51819513 150.13923536 -163.51819513 150.13923536 -160.06640625 136.23828125 C-159.87304688 135.42649414 -159.6796875 134.61470703 -159.48046875 133.77832031 C-148.3025926 87.94557814 -119.99355026 49.02630341 -79.87475586 24.31982422 C-56.00956522 10.03972051 -28.01660655 0.30547038 0 0 Z " fill="#BAB0FF" transform="translate(211.06640625,26.76171875)"/>
    <path d="M0 0 C1.11246094 0.50917969 2.22492188 1.01835937 3.37109375 1.54296875 C24.13786014 10.88223647 49.36032403 12.27555042 70.93359375 4.73046875 C74.89006667 3.21677421 78.83229027 1.66524998 82.69702148 -0.07055664 C86.73628952 -1.80047282 90.38813637 -3.01132148 94.85131836 -2.13598633 C99.75599383 -0.09510308 103.24802095 4.02590692 106.93359375 7.73046875 C108.21760144 8.99303111 109.50284682 10.2543355 110.7890625 11.51464844 C114.4391013 15.10394513 118.06260943 18.71883325 121.67724609 22.34375 C123.95295567 24.62487676 126.23403596 26.90053673 128.515625 29.17578125 C129.96776914 30.62858524 131.41960357 32.08169889 132.87109375 33.53515625 C133.89130615 34.55233231 133.89130615 34.55233231 134.93212891 35.59005737 C135.56038574 36.22146637 136.18864258 36.85287537 136.8359375 37.50341797 C137.38757568 38.05585175 137.93921387 38.60828552 138.50756836 39.17745972 C141.18450029 42.09276508 142.25684161 44.15167538 142.37109375 48.04296875 C142.41105469 48.78160156 142.45101562 49.52023437 142.4921875 50.28125 C141.28820109 55.56026735 137.34944366 58.6401296 132.9921875 61.44140625 C131.46146193 62.34594109 129.92044634 63.23322417 128.37109375 64.10546875 C127.12513428 64.81437256 127.12513428 64.81437256 125.85400391 65.53759766 C106.68955591 76.15656331 85.58094792 82.69537579 63.93359375 85.73046875 C63.25578857 85.82618164 62.5779834 85.92189453 61.87963867 86.02050781 C22.27533658 91.03223263 -23.5648381 81.88691323 -55.921875 57.5859375 C-59.08833216 54.84628877 -59.90311737 52.98235014 -60.44140625 48.85546875 C-59.51473163 41.13318022 -52.29708168 35.67036207 -47.06640625 30.46484375 C-46.19371094 29.59023499 -45.32101563 28.71562622 -44.421875 27.81451416 C-42.58188518 25.97316706 -40.73938206 24.1343284 -38.89453125 22.29785156 C-37.00542126 20.41591706 -35.11921915 18.53164497 -33.23828125 16.64160156 C-30.51964993 13.91063009 -27.79420188 11.18665848 -25.06640625 8.46484375 C-24.22464844 7.61903748 -23.38289063 6.7732312 -22.515625 5.90179443 C-21.72800781 5.12048157 -20.94039062 4.3391687 -20.12890625 3.53417969 C-19.43925781 2.84612244 -18.74960938 2.15806519 -18.0390625 1.44915771 C-12.35394411 -3.50403687 -6.68566398 -2.76795006 0 0 Z " fill="#6C47FF" transform="translate(180.06640625,287.26953125)"/>
    <path d="M0 0 C12.86735047 9.25244264 20.84919788 20.99564648 23.91796875 36.6484375 C25.90766713 51.0783996 23.01424958 64.31743777 15.3359375 76.6796875 C6.01720846 88.94671499 -5.93838252 97.52557359 -21.26953125 100.3984375 C-37.72280242 102.33095875 -52.14161178 98.47954608 -65.45703125 88.609375 C-75.29211841 80.30683546 -82.72308178 68.5590923 -84.6640625 55.6796875 C-85.91724586 38.15687706 -83.10410759 23.06213647 -71.3515625 9.4921875 C-52.76966255 -10.28360718 -23.17113202 -15.07248394 0 0 Z " fill="#6C47FF" transform="translate(251.6640625,154.3203125)"/>
</svg>
