<svg version="1.1" xmlns="http://www.w3.org/2000/svg" width="256" height="256">
<path d="M0 0 C0.72928711 0.20898926 1.45857422 0.41797852 2.20996094 0.63330078 C18.8925997 5.60235985 33.74797 13.76975406 47 25 C48.00546875 25.84175781 49.0109375 26.68351562 50.046875 27.55078125 C73.80011885 48.01965434 88.04903344 77.10520842 92 108 C94.09075458 146.16708528 85.15253567 179.89429253 59.78515625 208.99267578 C38.98927688 232.0432808 8.09300667 248.46109333 -23.23120117 250.17700195 C-62.04821297 250.8952526 -95.39483902 241.77018608 -124.23779297 214.8046875 C-146.33890715 193.3585712 -161.66270097 162.56359116 -162.23828125 131.45703125 C-162.4548029 116.58043344 -162.15057084 102.39500659 -158 88 C-157.79101074 87.27071289 -157.58202148 86.54142578 -157.36669922 85.79003906 C-152.39764015 69.1074003 -144.23024594 54.25203 -133 41 C-132.15824219 39.99453125 -131.31648438 38.9890625 -130.44921875 37.953125 C-98.99188595 1.44824789 -46.16243049 -13.31020146 0 0 Z " fill="#F9FBF8" transform="translate(163,5)"/>
<path d="M0 0 C7.34222203 0.93878212 14.67479297 1.93635044 22 3 C22.70205566 3.10151367 23.40411133 3.20302734 24.12744141 3.30761719 C62.8213271 9.19379676 92.62453957 30.97514845 120 57.5625 C120.71365723 58.24159424 121.42731445 58.92068848 122.16259766 59.62036133 C122.81019043 60.26255615 123.4577832 60.90475098 124.125 61.56640625 C124.70507812 62.13302979 125.28515625 62.69965332 125.8828125 63.28344727 C127 65 127 65 126.95581055 66.91357422 C125.63991832 69.78601739 123.81121648 71.5781037 121.58203125 73.81640625 C120.66397705 74.74050293 119.74592285 75.66459961 118.80004883 76.61669922 C117.8050195 77.59946402 116.80915351 78.58138237 115.8125 79.5625 C115.31301849 80.05832581 114.81353699 80.55415161 114.29891968 81.06500244 C106.62783294 88.66996842 98.75605208 95.66607661 90 102 C89.11054688 102.70769531 88.22109375 103.41539062 87.3046875 104.14453125 C64.24494262 122.14489927 30.7850069 130.03243674 2 131 C2.72160716 126.52255796 4.24313398 122.42025195 5.8125 118.1875 C8.8049289 109.90084291 11.0956393 101.59708988 13 93 C13.226875 92.06800781 13.45375 91.13601562 13.6875 90.17578125 C19.68604035 61.64105805 12.17013746 31.69494279 1.3203125 5.359375 C0 2 0 2 0 0 Z " fill="#018001" transform="translate(82,62)"/>
<path d="M0 0 C0.72960937 0.57492188 1.45921875 1.14984375 2.2109375 1.7421875 C19.19511964 15.77259883 34.74247571 41.08571727 37.25683594 63.265625 C37.67579812 68.172895 37.88080278 73.07715489 38 78 C23.28416175 79.5205803 23.28416175 79.5205803 18.2890625 76.1953125 C16.02762347 73.56397266 14.0323469 70.81147446 12 68 C10.11666752 65.90174045 8.13284593 63.9161824 6.125 61.9375 C5.35953857 61.17542236 5.35953857 61.17542236 4.57861328 60.39794922 C-0.3293598 55.56760937 -5.57040449 51.23299044 -11 47 C-12.01835937 46.18789062 -13.03671875 45.37578125 -14.0859375 44.5390625 C-31.70214361 30.59458052 -50.12375243 20.8036149 -71.78320312 14.63183594 C-73.76202475 14.06782819 -75.73319067 13.47711758 -77.703125 12.8828125 C-96.71972152 7.5729836 -117.30505573 5.57756435 -137 5 C-136.3503125 6.24716797 -136.3503125 6.24716797 -135.6875 7.51953125 C-135.130625 8.60621094 -134.57375 9.69289062 -134 10.8125 C-133.443125 11.89144531 -132.88625 12.97039063 -132.3125 14.08203125 C-131 17 -131 17 -131 20 C-140.57 20 -150.14 20 -160 20 C-141.80184868 -4.26420176 -117.07455724 -20.34185993 -86.92822266 -25.34375 C-55.18745405 -29.66117298 -24.71683933 -19.87319358 0 0 Z " fill="#028102" transform="translate(199,44)"/>
<path d="M0 0 C2.95064148 -0.2208564 5.68368231 -0.28060989 8.625 -0.1875 C9.42679688 -0.17396484 10.22859375 -0.16042969 11.0546875 -0.14648438 C13.03674378 -0.11109051 15.01845551 -0.05728234 17 0 C17.22897738 23.8899728 6.75360387 45.65053569 -8 64 C-8.57492188 64.72960937 -9.14984375 65.45921875 -9.7421875 66.2109375 C-27.02141001 87.12789106 -54.80577768 99.66103939 -81.30078125 102.68359375 C-111.53901558 105.2699686 -139.63211001 96.17729574 -163 77 C-164.08667969 76.14148438 -164.08667969 76.14148438 -165.1953125 75.265625 C-171.20060623 70.32008898 -177.49954356 64.00091289 -181 57 C-170.77 57 -160.54 57 -150 57 C-151.27063552 60.81190657 -152.48250324 64.26150712 -154.125 67.875 C-154.65480469 69.04675781 -154.65480469 69.04675781 -155.1953125 70.2421875 C-155.46085937 70.82226562 -155.72640625 71.40234375 -156 72 C-130.6022485 70.45272651 -105.1050892 67.45542483 -81 59 C-80.30455078 58.76700195 -79.60910156 58.53400391 -78.89257812 58.29394531 C-62.03851489 52.64137633 -47.52770032 44.49949659 -34 33 C-32.79840092 32.00233452 -31.59657406 31.00494331 -30.39453125 30.0078125 C-13.7597796 16.32653297 -13.7597796 16.32653297 0 0 Z " fill="#028102" transform="translate(220,135)"/>
<path d="M0 0 C14.19 0 28.38 0 43 0 C45.98395377 6.71389599 48.25501818 12.59167126 50.125 19.5625 C50.38361816 20.52269043 50.64223633 21.48288086 50.90869141 22.47216797 C53.03377381 30.63123356 54.41092797 38.58468528 55 47 C55.07089844 47.99515625 55.14179687 48.9903125 55.21484375 50.015625 C55.82169713 67.78429183 50.54165409 86.64586477 44 103 C29.48 103 14.96 103 0 103 C-11.42995969 76.87437786 -17.68754828 46.5119084 -8.77734375 18.36328125 C-6.21797085 12.08016141 -3.03407266 6.06814533 0 0 Z " fill="#018001" transform="translate(31,77)"/>
<path d="M0 0 C0.72928711 0.20898926 1.45857422 0.41797852 2.20996094 0.63330078 C18.8925997 5.60235985 33.74797 13.76975406 47 25 C48.00546875 25.84175781 49.0109375 26.68351562 50.046875 27.55078125 C73.80011885 48.01965434 88.04903344 77.10520842 92 108 C94.09075458 146.16708528 85.15253567 179.89429253 59.78515625 208.99267578 C38.98927688 232.0432808 8.09300667 248.46109333 -23.23120117 250.17700195 C-62.04821297 250.8952526 -95.39483902 241.77018608 -124.23779297 214.8046875 C-146.33890715 193.3585712 -161.66270097 162.56359116 -162.23828125 131.45703125 C-162.4548029 116.58043344 -162.15057084 102.39500659 -158 88 C-157.79101074 87.27071289 -157.58202148 86.54142578 -157.36669922 85.79003906 C-152.39764015 69.1074003 -144.23024594 54.25203 -133 41 C-132.15824219 39.99453125 -131.31648438 38.9890625 -130.44921875 37.953125 C-98.99188595 1.44824789 -46.16243049 -13.31020146 0 0 Z M-120 37 C-120.67289063 37.60972656 -121.34578125 38.21945313 -122.0390625 38.84765625 C-143.7036831 59.1744218 -154.9422801 89.69211652 -156.16015625 118.83203125 C-157.04681619 151.40149675 -144.92119164 182.4609484 -122.96484375 206.3515625 C-107.54922798 222.6060911 -88.5055267 233.84065012 -67 240 C-66.2678125 240.22171875 -65.535625 240.4434375 -64.78125 240.671875 C-62.86136275 241.20879262 -60.95817789 241.62510721 -59 242 C-58.05898437 242.18433594 -57.11796875 242.36867187 -56.1484375 242.55859375 C-23.99225681 248.01836682 8.22291466 240.48074907 35 222 C64.5895932 200.4446672 79.70249224 171.03062642 85.58984375 135.43359375 C89.16177389 105.53143573 80.25320044 74.34645296 62.03125 50.484375 C58.50662392 46.17348618 54.81974529 42.05042262 51 38 C50.38769531 37.32324219 49.77539062 36.64648438 49.14453125 35.94921875 C39.34393603 25.52171978 26.80900791 18.13147829 14 12 C13.02417969 11.52820312 12.04835937 11.05640625 11.04296875 10.5703125 C-33.92650121 -8.81411766 -85.52102537 4.0332611 -120 37 Z " fill="#048103" transform="translate(163,5)"/>
</svg>
